<?xml version="1.0" encoding="UTF-8"?>
<svg width="155px" height="31px" viewBox="0 0 155 31" version="1.1" xmlns="http://www.w3.org/2000/svg" xmlns:xlink="http://www.w3.org/1999/xlink">
    <title>Group 4</title>
    <g id="Page-1" stroke="none" stroke-width="1" fill="none" fill-rule="evenodd">
        <g id="iPhone-11-Pro" transform="translate(-749.000000, -2322.000000)" fill="#333333" fill-rule="nonzero">
            <g id="Group-4" transform="translate(749.000000, 2322.000000)">
                <path d="M155,26.5 C155,28.9853016 152.985301,31 150.5,31 C148.014699,31 146,28.9853016 146,26.5 C146,24.0147002 148.014699,22 150.5,22 C152.985301,21.9978331 155,24.0125315 155,26.5 L155,26.5 Z" id="Path"></path>
                <path d="M97.2301123,18.1204208 L108.35483,6.9865099 L103.91376,6.9865099 L89.172167,21.7402847 L89.172167,30.2691213 L92.3826946,30.2691213 L92.3826946,22.9737624 L94.9511168,20.4032178 L103.223736,30.2691213 L107.39263,30.2691213 L107.39263,27.1269183 L104.778207,27.1269183 L97.2301123,18.1204208 L97.2301123,18.1204208 Z M89.172167,3.14220297 L86.5213253,3.14220297 L86.5213253,0 L92.3826946,0 L92.3826946,14.6674505 L89.172167,17.8806312 L89.172167,3.14220297 L89.172167,3.14220297 Z M73.9686412,18.1204208 L85.095276,6.9865099 L80.6542057,6.9865099 L65.9126126,21.7402847 L65.9126126,30.2691213 L69.1231403,30.2691213 L69.1231403,22.9737624 L71.6915625,20.4032178 L79.9641819,30.2691213 L84.133076,30.2691213 L84.133076,27.1269183 L81.5167356,27.1269183 L73.9686412,18.1204208 L73.9686412,18.1204208 Z M65.9126126,3.14220297 L63.2598542,3.14220297 L63.2598542,0 L69.1212236,0 L69.1212236,14.6674505 L65.9106959,17.8806312 L65.9106959,3.14220297 L65.9126126,3.14220297 Z M120.234741,9.3115099 C124.798482,9.3115099 128.593613,12.599505 129.387141,16.9368193 L111.084258,16.9368193 C111.877785,12.599505 115.672917,9.3115099 120.234741,9.3115099 L120.234741,9.3115099 Z M132.599585,18.6249381 C132.599585,11.7918936 127.064061,6.25179455 120.234741,6.25179455 C113.407338,6.25179455 107.871814,11.7918936 107.871814,18.6249381 C107.871814,25.459901 113.407338,31 120.234741,31 C125.411837,31 129.847157,27.8136757 131.68722,23.2941213 L128.286936,23.2941213 C126.676881,26.0718441 123.67336,27.9402847 120.232824,27.9402847 C115.58858,27.9402847 111.739781,24.5352723 111.04209,20.0828589 L132.513332,20.0828589 C132.570834,19.6032797 132.599585,19.1179455 132.599585,18.6249381 L132.599585,18.6249381 Z M14.9313497,9.3115099 C9.79258863,9.3115099 5.62752794,13.4819307 5.62752794,18.6230198 C5.62752794,23.7660272 9.79258863,27.936448 14.9313497,27.936448 C20.0701107,27.936448 24.2370881,23.7660272 24.2370881,18.6230198 C24.2370881,13.4819307 20.0720274,9.3115099 14.9313497,9.3115099 L14.9313497,9.3115099 Z M27.2961939,18.6249381 C27.2961939,25.459901 21.7606692,31 14.9313497,31 C11.3470591,31 8.11928077,29.4711015 5.85945262,27.0310025 L5.85945262,30.2652847 L2.64892493,30.2652847 L2.64892493,3.14220297 L0,3.14220297 L0,0 L5.86136936,0 L5.86136936,10.2188738 C8.11928077,7.77877475 11.3470591,6.24987624 14.9332664,6.24987624 C21.7606692,6.25179455 27.2961939,11.7918936 27.2961939,18.6249381 L27.2961939,18.6249381 Z M49.9922288,9.3115099 C44.8534677,9.3115099 40.6864903,13.4819307 40.6864903,18.6230198 C40.6864903,23.7660272 44.8534677,27.936448 49.9922288,27.936448 C55.1309898,27.936448 59.2960511,23.7660272 59.2960511,18.6230198 C59.2979672,13.4819307 55.1329065,9.3115099 49.9922288,9.3115099 L49.9922288,9.3115099 Z M62.357073,18.6249381 C62.357073,25.459901 56.8215483,31 49.9941455,31 C43.1667427,31 37.631218,25.459901 37.631218,18.6249381 C37.631218,11.7918936 43.1667427,6.25179455 49.9941455,6.25179455 C56.8215483,6.25179455 62.357073,11.7918936 62.357073,18.6249381 L62.357073,18.6249381 Z M147,6.25179455 L147,9.46497525 C144.042481,9.46497525 140.14768,11.7746287 140.14768,14.7940594 C140.14768,18.6633045 140.14768,30.267203 140.14768,30.267203 L136.937152,30.267203 L136.937152,10.1267946 L134.284394,10.1267946 L134.284394,6.98459158 L140.145763,6.98459158 L140.05376,9.46305693 C141.780736,7.45266089 144.387493,6.25179455 147,6.25179455 L147,6.25179455 Z M34.0680114,0 L34.0680114,30.2652847 L30.8574837,30.2652847 L30.8574837,3.14412129 L28.2066421,3.14412129 L28.2066421,0.00191831683 L34.0680114,0.00191831683 L34.0680114,0 Z" id="Shape"></path>
            </g>
        </g>
    </g>
</svg>