<?xml version="1.0" encoding="UTF-8"?>
<svg width="153px" height="43px" viewBox="0 0 153 43" version="1.1" xmlns="http://www.w3.org/2000/svg" xmlns:xlink="http://www.w3.org/1999/xlink">
    <title>Group 3</title>
    <g id="Page-1" stroke="none" stroke-width="1" fill="none" fill-rule="evenodd">
        <g id="iPhone-11-Pro" transform="translate(-750.000000, -2176.000000)" fill="#333333" fill-rule="nonzero">
            <g id="Group-3" transform="translate(750.000000, 2176.000000)">
                <path d="M57,0 L99,0 L99,9 L57,9 C57,9 57,0 57,0 Z" id="Path"></path>
                <path d="M57,17 L99,17 L99,26 L57,26 C57,26 57,17 57,17 Z" id="Path"></path>
                <path d="M57,34 L99,34 L99,43 L57,43 C57,43 57,34 57,34 Z" id="Path"></path>
                <path d="M142.276596,1 L111,1 L111,43 L142.276596,43 C148.085106,43 153,38.0851064 153,32.2765957 L153,11.7234043 C152.553191,5.91489362 148.085106,1 142.276596,1 L142.276596,1 Z M142.276596,9.4893617 C143.170213,9.4893617 144.510638,10.3829787 144.510638,11.7234043 L144.510638,32.7234043 C144.510638,33.6170213 143.617021,34.9574468 142.276596,34.9574468 L119.042553,34.9574468 L119.042553,9.4893617 L142.276596,9.4893617 Z" id="Shape"></path>
                <path d="M42,43 L10.7234043,43 C4.91489362,43 0,38.0851064 0,32.2765957 L0,11.7234043 C0,5.91489362 4.91489362,1 10.7234043,1 L42,1 L42,9.4893617 L10.7234043,9.4893617 C9.82978723,9.4893617 8.4893617,10.3829787 8.4893617,11.7234043 L8.4893617,32.7234043 C8.4893617,33.6170213 9.38297872,34.9574468 10.7234043,34.9574468 L42,34.9574468 C42,34.5106383 42,43 42,43 Z" id="Path"></path>
            </g>
        </g>
    </g>
</svg>