<?xml version="1.0" encoding="UTF-8"?>
<svg width="67px" height="66px" viewBox="0 0 67 66" version="1.1" xmlns="http://www.w3.org/2000/svg" xmlns:xlink="http://www.w3.org/1999/xlink">
    <title>Combined Shape</title>
    <g id="Page-1" stroke="none" stroke-width="1" fill="none" fill-rule="evenodd">
        <g id="iPhone-11-Pro" transform="translate(-1009.000000, -2304.000000)" fill="#333333" fill-rule="nonzero">
            <path d="M1075.22305,2304 L1075.22305,2368.68042 C1075.22305,2369.40892 1074.63254,2370 1073.90403,2370 L1073.90403,2370 L1010.54302,2370 C1009.81413,2370 1009.22305,2369.40892 1009.22305,2368.68042 L1009.22305,2368.68042 L1009.22305,2304 L1075.22305,2304 Z M1015.78467,2330 L1013.49229,2330 C1013.3433,2330 1013.22305,2330.11632 1013.22305,2330.26045 L1013.22305,2344.73898 C1013.22305,2344.88311 1013.3433,2345 1013.49229,2345 L1015.78487,2345 C1015.93386,2345 1016.05411,2344.88311 1016.05411,2344.73898 L1016.05411,2338.54322 C1016.05411,2338.39909 1016.17553,2338.28163 1016.32453,2338.28163 L1022.12157,2338.28163 C1022.27056,2338.28163 1022.39199,2338.39909 1022.39199,2338.54322 L1022.39199,2344.73898 C1022.39199,2344.88311 1022.51224,2345 1022.66123,2345 L1024.95381,2345 C1025.1028,2345 1025.22305,2344.88311 1025.22305,2344.73898 L1025.22305,2330.26045 C1025.22305,2330.11632 1025.1028,2330 1024.95381,2330 L1022.66103,2330 C1022.51204,2330 1022.39179,2330.11632 1022.39179,2330.26045 L1022.39179,2335.54322 C1022.39179,2335.68735 1022.27037,2335.80424 1022.12137,2335.80424 L1016.32433,2335.80424 C1016.17534,2335.80424 1016.05392,2335.68735 1016.05392,2335.54322 L1016.05392,2330.26045 C1016.05392,2330.11632 1015.93367,2330 1015.78467,2330 Z M1037.96372,2330 L1028.48238,2330 C1028.33887,2330 1028.22305,2330.11613 1028.22305,2330.26045 L1028.22305,2344.73841 C1028.22305,2344.88254 1028.33887,2345 1028.48238,2345 L1037.96372,2345 C1038.10722,2345 1038.22305,2344.88254 1038.22305,2344.73841 L1038.22305,2342.7823 C1038.22305,2342.63817 1038.10722,2342.52128 1037.96372,2342.52128 L1031.21035,2342.52128 C1031.06685,2342.52128 1030.95046,2342.40439 1030.95046,2342.26083 L1030.95046,2338.54322 C1030.95046,2338.39909 1031.06685,2338.28163 1031.21035,2338.28163 L1036.79456,2338.28163 C1036.93807,2338.28163 1037.05445,2338.16531 1037.05445,2338.02118 L1037.05445,2336.06507 C1037.05445,2335.92075 1036.93807,2335.80386 1036.79456,2335.80386 L1031.21035,2335.80386 C1031.06685,2335.80386 1030.95046,2335.68716 1030.95046,2335.54284 L1030.95046,2332.73879 C1030.95046,2332.59467 1031.06685,2332.47778 1031.21035,2332.47778 L1037.96372,2332.47778 C1038.10722,2332.47778 1038.22305,2332.36089 1038.22305,2332.21733 L1038.22305,2330.26045 C1038.22305,2330.11613 1038.10722,2330 1037.96372,2330 Z M1065.97789,2330 L1063.4684,2330 C1063.32782,2330 1063.17467,2330.11689 1063.12535,2330.26101 L1063.12535,2330.26101 L1058.23754,2344.73842 C1058.18988,2344.88255 1058.26341,2345 1058.40473,2345 L1058.40473,2345 L1060.63397,2345 C1060.77455,2345 1060.92825,2344.88255 1060.97703,2344.73842 L1060.97703,2344.73842 L1061.76401,2342.34677 C1061.8126,2342.20264 1061.96574,2342.08632 1062.10651,2342.08632 L1062.10651,2342.08632 L1067.33959,2342.08632 C1067.47981,2342.08632 1067.63407,2342.20264 1067.68173,2342.34677 L1067.68173,2342.34677 L1068.46871,2344.73842 C1068.51785,2344.88255 1068.671,2345 1068.81177,2345 L1068.81177,2345 L1071.04101,2345 C1071.18159,2345 1071.25697,2344.88255 1071.2082,2344.73842 L1071.2082,2344.73842 L1066.32095,2330.26101 C1066.27236,2330.11689 1066.11866,2330 1065.97789,2330 L1065.97789,2330 Z M1044.71624,2330 L1041.48257,2330 C1041.33958,2330 1041.22305,2330.11632 1041.22305,2330.26045 L1041.22305,2330.26045 L1041.22305,2344.73898 C1041.22305,2344.88311 1041.33958,2345 1041.48257,2345 L1041.48257,2345 L1043.68283,2345 C1043.82582,2345 1043.94123,2344.88311 1043.94123,2344.73898 L1043.94123,2344.73898 L1043.94123,2334.5069 C1043.94123,2334.36334 1043.97088,2334.35635 1044.01986,2334.49158 L1044.01986,2334.49158 L1047.66862,2344.47778 C1047.72153,2344.6219 1047.87973,2344.73879 1048.02272,2344.73879 L1048.02272,2344.73879 L1049.42338,2344.73879 C1049.56637,2344.73879 1049.72531,2344.6219 1049.77861,2344.47778 L1049.77861,2344.47778 L1053.4268,2334.49158 C1053.47578,2334.35653 1053.50543,2334.36334 1053.50543,2334.5069 L1053.50543,2334.5069 L1053.50543,2344.73898 C1053.50543,2344.88311 1053.6214,2345 1053.76439,2345 L1053.76439,2345 L1055.96465,2345 C1056.10764,2345 1056.22305,2344.88311 1056.22305,2344.73898 L1056.22305,2344.73898 L1056.22305,2330.26045 C1056.22305,2330.11632 1056.10764,2330 1055.96465,2330 L1055.96465,2330 L1052.73042,2330 C1052.58742,2330 1052.42848,2330.11632 1052.37575,2330.26045 L1052.37575,2330.26045 L1048.80993,2340.12143 C1048.78028,2340.20352 1048.7587,2340.22735 1048.72305,2340.22735 C1048.68777,2340.22735 1048.66638,2340.20352 1048.63616,2340.12143 L1048.63616,2340.12143 L1045.07035,2330.26045 C1045.01743,2330.11632 1044.85924,2330 1044.71624,2330 L1044.71624,2330 Z M1064.72352,2333.69179 C1064.75695,2333.69179 1064.78245,2333.72659 1064.80517,2333.79412 L1064.80517,2333.79412 L1066.67232,2339.41209 C1066.72109,2339.55622 1066.6459,2339.67311 1066.50513,2339.67311 L1066.50513,2339.67311 L1062.94024,2339.67311 C1062.79965,2339.67311 1062.72539,2339.55622 1062.7736,2339.41209 L1062.7736,2339.41209 L1064.64131,2333.79412 C1064.66403,2333.7264 1064.68934,2333.69179 1064.72352,2333.69179 Z" id="Combined-Shape"></path>
        </g>
    </g>
</svg>