<?xml version="1.0" encoding="UTF-8"?>
<svg width="166px" height="24px" viewBox="0 0 166 24" version="1.1" xmlns="http://www.w3.org/2000/svg" xmlns:xlink="http://www.w3.org/1999/xlink">
    <title>Group 16</title>
    <g id="Page-1" stroke="none" stroke-width="1" fill="none" fill-rule="evenodd">
        <g id="iPhone-11-Pro" transform="translate(-1185.000000, -2516.000000)" fill="#333333" fill-rule="nonzero">
            <g id="Group-16" transform="translate(1185.000000, 2516.000000)">
                <path d="M17,10 L17,20.7140002 C17,22.8723115 18.9041127,24 21.1896901,24 C23.0250141,24 24.8588169,23.4128568 26.1267606,20.7578156 L26.1267606,23.5925482 L29,23.5925482 L29,10.0001599 L26.1267606,10.0001599 L26.1267606,19.6862557 C24.7438028,22.4738147 23.3571268,23.3956984 21.7492958,23.3944191 C20.3684,23.3933573 19.8732394,22.3131526 19.8732394,21.5135524 L19.8732394,10 L17,10 Z" id="Path"></path>
                <path d="M0,0 L0,23 L2.63013699,23 L2.63013699,13.6973632 C4.21916712,10.9731599 5.80750685,9.95174339 7.38082192,9.95302116 C8.72388493,9.95408235 9.20547945,11.2018965 9.20547945,12.2986854 L9.20547945,23 L12,23 L12,12.2986854 C12,10.5417532 9.53408219,9.34783786 7.92509589,9.34783786 C6.11063014,9.34783786 4.56164384,9.72942757 2.63013699,12.6869675 L2.63013699,0 L0,0 Z" id="Path"></path>
                <path d="M42.9250959,10 C41.2132055,10 39.0880548,10.7481613 37.7945205,13.2218819 L37.7945205,10.0898422 L35,10.0898422 L35,23.9998364 L37.7945205,23.9998364 L37.7945205,14.3201169 C39.1524438,11.6875278 40.8772055,10.6185856 42.3808219,10.6198948 C43.7238849,10.6209814 44.2054795,11.7264267 44.2054795,12.5447107 L44.2054795,24 L47,24 L47,13.3629456 C47,11.1542022 45.1480548,10.0001636 42.9250959,10.0001636 L42.9250959,10 Z" id="Path"></path>
                <polygon id="Path" points="52 1.59722111e-05 52 23 54.7199855 23 54.7199855 18.0486145 55.7109242 17.0974534 60.4800188 22.999984 64 22.999984 57.7025936 15.1857395 63.0400051 10.062493 62.2400094 10.062493 54.7200495 17.249988 54.7200495 0"></polygon>
                <path d="M89.8483023,10 C88.0794186,10 86.0142558,10.514588 84.7674419,13.2282642 L84.7674419,10.0898422 L82,10.0898422 L82,23.9998364 L84.7674419,23.9998364 L84.7674419,14.3248627 C86.123407,11.4754413 87.7598605,10.6185856 89.3093023,10.6197312 C90.6393512,10.6208178 91.1162791,11.726263 91.1162791,12.544547 L91.1162791,23.9998364 L93.8837209,23.9998364 L93.8837209,13.9928229 C95.2067047,11.4075278 96.7748837,10.6185856 98.2627907,10.6198948 C99.5928395,10.6209814 100.069767,11.7264267 100.069767,12.5447107 L100.069767,24 L103,24 L103,14.1811806 C103,11.3991818 101.003209,10.0001636 98.8017907,10.0001636 C97.0972093,10.0001636 95.1176744,10.4782583 93.8602791,12.941391 C93.6409674,11.0077382 91.9051628,10.0001636 89.8483023,10.0001636 L89.8483023,10 Z" id="Path"></path>
                <rect id="Rectangle" x="125" y="0" width="3" height="23"></rect>
                <rect id="Rectangle" x="134" y="0" width="3" height="23"></rect>
                <path d="M163.665248,10.0003786 C161.471699,9.96672385 160.096169,12.1847342 159.781823,13.5789372 L159.781823,10.0135423 L157,10.0135423 L157,24 L159.781823,24 L159.781823,15.1505214 C160.333999,12.8147829 161.631245,10.6029481 163.510612,10.6579066 C163.219829,10.9831823 163.05508,11.4336614 163.05454,11.9048569 C163.054638,12.8583878 163.713979,13.6312794 164.52727,13.6312794 C165.340561,13.6312794 166,12.8583549 166,11.9048569 C166,10.507182 164.932353,10.0198115 163.665232,10.000395 L163.665248,10.0003786 Z" id="Path"></path>
                <path d="M153.677762,15.7567982 C153.677762,13.5136193 151.356194,10 148.360827,10 C144.493643,10 142,13.760369 142,17.0626488 C142,20.9632164 144.80138,24 148.360827,24 C151.226332,24 153.413848,21.9418834 154,19.1215666 L153.516642,19.1215666 C152.549927,22.4863349 150.455377,23.4476973 148.360827,23.4476973 C146.266276,23.4476973 145.138442,22.1658808 145.138442,19.9227019 L145.138442,15.7567982 L153.677762,15.7567982 Z M145.138442,15.276117 L145.138442,13.9943005 C145.138442,12.0715757 146.266276,10.4693051 148.038588,10.4693051 C149.8109,10.4693051 150.616496,12.0715757 150.616496,13.9943005 L150.616496,15.276117 L145.138442,15.276117 Z" id="Shape"></path>
                <path d="M115,10 C113.143528,10 111.363075,10.7374278 110.05032,12.0501827 C108.737565,13.3629376 108,15.1434403 108,17 C108,18.8565597 108.737565,20.6370624 110.05032,21.9498173 C111.363075,23.2625722 113.143528,24 115,24 C116.856472,24 118.636925,23.2625722 119.94968,21.9498173 C121.262435,20.6370624 122,18.8565597 122,17 C122,15.1434403 121.262435,13.3629376 119.94968,12.0501827 C118.636925,10.7374278 116.856472,10 115,10 L115,10 Z M114.065852,10.719093 L115.933809,10.719093 C117.502336,10.719093 118.765117,12.0909848 118.765117,13.7950554 L118.765117,20.3724668 C118.765117,22.0766662 117.50237,23.4487512 115.933809,23.4487512 L114.065852,23.4487512 C112.497325,23.4487512 111.234544,22.0765374 111.234544,20.3724668 L111.234544,13.7950554 C111.234544,12.090856 112.497291,10.719093 114.065852,10.719093 Z" id="Shape"></path>
                <path d="M78.6777615,15.7567982 C78.6777615,13.5136193 76.3561944,10 73.3608265,10 C69.4936425,10 67,13.760369 67,17.0626488 C67,20.9632164 69.8013803,24 73.3608265,24 C76.2263323,24 78.4138482,21.9418834 79,19.1215666 L78.5166423,19.1215666 C77.5499268,22.4863349 75.4553767,23.4476973 73.3608265,23.4476973 C71.2662764,23.4476973 70.1384417,22.1658808 70.1384417,19.9227019 L70.1384417,15.7567982 L78.6777615,15.7567982 Z M70.1384417,15.276117 L70.1384417,13.9943005 C70.1384417,12.0715757 71.2662764,10.4693051 73.0385881,10.4693051 C74.8108997,10.4693051 75.6164959,12.0715757 75.6164959,13.9943005 L75.6164959,15.276117 L70.1384417,15.276117 Z" id="Shape"></path>
                <path d="M110.031245,2 C108.812498,2 108,2.83628215 108,4.09070537 C108,6.88221519 111.11268,6.86716211 113.192675,6.08707812 C111.936715,7.60991446 110.921255,8.27061081 110.212757,8.46329022 C109.84892,8.56224247 109.37889,8.59388069 109.164131,8.3450349 C109.375072,8.2406418 109.50928,8.0211261 109.509442,7.78020994 C109.509442,7.43380515 109.236622,7.15299833 108.900069,7.15299833 C108.563516,7.15299833 108.290696,7.43380515 108.290696,7.78020994 C108.290696,8.34945047 108.944773,8.89520821 109.430419,8.9673459 C109.871053,9.03278833 110.386794,9.01266571 110.896084,8.78799683 C111.914696,8.33867916 113.195453,7.14966993 114.5,5.3873391 C115.804547,7.1497201 117.085206,8.33874606 118.103916,8.78799683 C118.613222,9.01265567 119.128963,9.03277662 119.569581,8.9673459 C120.055211,8.89521824 120.709304,8.3494672 120.709304,7.78020994 C120.709304,7.43380515 120.436484,7.15299833 120.099931,7.15299833 C119.763378,7.15299833 119.490558,7.43380515 119.490558,7.78020994 C119.490725,8.02110938 119.624932,8.24063344 119.835869,8.3450349 C119.62111,8.59387902 119.15108,8.56225083 118.787243,8.46329022 C118.078842,8.27062754 117.063285,7.60991446 115.807325,6.08707812 C117.88732,6.86717883 121,6.88231554 121,4.09070537 C121,1.58185893 117.750008,0.745576776 114.500016,4.92698752 C112.87502,2.83628215 111.250024,2 110.031277,2 L110.031245,2 Z M110.355285,2.66313829 C111.410021,2.65983063 112.895317,3.4007726 114.175001,5.0942105 C113.037504,6.09774908 108.975014,6.26500551 108.975014,3.92341549 C108.975014,3.11849392 109.534955,2.66568059 110.355302,2.66310484 L110.355285,2.66313829 Z M118.644715,2.66313829 C119.465061,2.66571086 120.025002,3.11852737 120.025002,3.92344894 C120.025002,6.26503896 115.962513,6.09778253 114.825015,5.09424395 C116.1047,3.4007726 117.589946,2.65982662 118.644731,2.66317174 L118.644715,2.66313829 Z" id="Shape"></path>
            </g>
        </g>
    </g>
</svg>