<?xml version="1.0" encoding="UTF-8"?>
<svg width="154px" height="16px" viewBox="0 0 154 16" version="1.1" xmlns="http://www.w3.org/2000/svg" xmlns:xlink="http://www.w3.org/1999/xlink">
    <title>Group 12</title>
    <g id="Page-1" stroke="none" stroke-width="1" fill="none" fill-rule="evenodd">
        <g id="iPhone-11-Pro" transform="translate(-1256.000000, -2441.000000)" fill="#333333" fill-rule="nonzero">
            <g id="Group-12" transform="translate(1256.000000, 2441.000000)">
                <path d="M21,1.76588629 C21,0.74916388 21.6939502,0 22.7615658,0 C23.8291815,0 24.5231317,0.695652174 24.5231317,1.76588629 L24.5231317,14.1270903 C24.5231317,15.1438127 23.8291815,15.8929766 22.7615658,15.8929766 C21.6939502,15.8929766 21,15.1973244 21,14.1270903 L21,1.76588629 Z M27.405694,2.08695652 C27.405694,0.642140468 28.0996441,0.0535117057 29.594306,0.0535117057 C30.341637,0.0535117057 30.9288256,0.321070234 31.3558719,0.963210702 L37.4412811,10.8093645 L37.4946619,10.8093645 L37.4946619,1.71237458 C37.4946619,0.588628763 38.1352313,0.0535117057 39.1494662,0.0535117057 C40.1637011,0.0535117057 40.8042705,0.588628763 40.8042705,1.71237458 L40.8042705,13.7525084 C40.8042705,15.1438127 40.2170819,15.9464883 38.7224199,15.9464883 C37.6014235,15.9464883 37.2811388,15.7324415 36.8007117,15.0367893 L30.8220641,5.40468227 L30.7686833,5.40468227 L30.7686833,14.2341137 C30.7686833,15.3578595 30.1281139,15.8929766 29.113879,15.8929766 C28.0996441,15.8929766 27.4590747,15.3578595 27.4590747,14.2341137 L27.4590747,2.08695652 L27.405694,2.08695652 Z M46.3558719,3.26421405 L43.9003559,3.26421405 C42.886121,3.26421405 42.0854093,2.72909699 42.0854093,1.81939799 C42.0854093,0.856187291 42.886121,0.37458194 43.9003559,0.37458194 L52.3345196,0.37458194 C53.3487544,0.37458194 54.1494662,0.909698997 54.1494662,1.81939799 C54.1494662,2.7826087 53.3487544,3.26421405 52.3345196,3.26421405 L49.8790036,3.26421405 L49.8790036,14.180602 C49.8790036,15.1973244 49.1850534,15.9464883 48.1174377,15.9464883 C47.0498221,15.9464883 46.3558719,15.2508361 46.3558719,14.180602 L46.3558719,3.26421405 Z M55.3772242,2.35451505 C55.3772242,0.802675585 56.1779359,0.321070234 57.405694,0.321070234 L65.0391459,0.321070234 C66.0533808,0.321070234 66.8007117,0.642140468 66.8007117,1.71237458 C66.8007117,2.7826087 66.0533808,3.10367893 65.0391459,3.10367893 L58.8469751,3.10367893 L58.8469751,6.42140468 L64.1850534,6.42140468 C65.0925267,6.42140468 65.8398577,6.68896321 65.8398577,7.75919732 C65.8398577,8.82943144 65.0925267,9.09698997 64.1850534,9.09698997 L58.8469751,9.09698997 L58.8469751,12.7892977 L65.1992883,12.7892977 C66.2135231,12.7892977 66.9608541,13.1103679 66.9608541,14.180602 C66.9608541,15.2508361 66.2135231,15.5719064 65.1992883,15.5719064 L57.405694,15.5719064 C56.1779359,15.5719064 55.3772242,15.090301 55.3772242,13.5384615 L55.3772242,2.35451505 Z M71.9786477,7.11705686 L74.9145907,7.11705686 C76.2491103,7.11705686 77.5302491,6.79598662 77.5302491,5.03010033 C77.5302491,3.37123746 76.5160142,2.94314381 75.0213523,2.94314381 L71.9786477,2.94314381 L71.9786477,7.11705686 Z M68.5088968,2.35451505 C68.5088968,0.802675585 69.3096085,0.321070234 70.5373665,0.321070234 L75.7686833,0.321070234 C79.9323843,0.321070234 81,2.62207358 81,4.60200669 C81,6.26086957 80.0391459,7.91973244 78.3843416,8.29431438 L78.3843416,8.34782609 C80.1459075,8.61538462 80.4661922,9.89966555 80.4661922,11.451505 C80.4661922,13.2173913 80.9466192,13.8595318 80.9466192,14.6086957 C80.9466192,15.4113712 80.0925267,15.9464883 79.2918149,15.9464883 C77.3701068,15.9464883 77.2099644,14.0735786 77.2099644,13.4849498 C77.2099644,10.8093645 76.7295374,9.73913043 74.8078292,9.73913043 L71.9252669,9.73913043 L71.9252669,14.2341137 C71.9252669,15.2508361 71.2313167,16 70.1637011,16 C69.0960854,16 68.4021352,15.3043478 68.4021352,14.2341137 L68.4021352,2.35451505 L68.5088968,2.35451505 Z" id="Shape"></path>
                <path d="M129.278701,7.14666667 L132.228097,7.14666667 C133.568731,7.14666667 134.85574,6.82666667 134.85574,5.06666667 C134.85574,3.41333333 133.836858,2.98666667 132.335347,2.98666667 L129.278701,2.98666667 L129.278701,7.14666667 Z M125.793051,2.4 C125.793051,0.853333333 126.597432,0.373333333 127.830816,0.373333333 L133.086103,0.373333333 C137.268882,0.373333333 138.34139,2.66666667 138.34139,4.64 C138.34139,6.29333333 137.376133,7.94666667 135.713746,8.32 L135.713746,8.37333333 C137.483384,8.64 137.805136,9.92 137.805136,11.4666667 C137.805136,13.2266667 138.287764,13.8666667 138.287764,14.6133333 C138.287764,15.4133333 137.429758,15.9466667 136.625378,15.9466667 C134.694864,15.9466667 134.533988,14.08 134.533988,13.4933333 C134.533988,10.8266667 134.05136,9.76 132.120846,9.76 L129.225076,9.76 L129.225076,14.24 C129.225076,15.2533333 128.527946,16 127.455438,16 C126.382931,16 125.685801,15.3066667 125.685801,14.24 L125.685801,2.4 L125.793051,2.4 Z M91.7945619,6.77333333 C95.0120846,7.52 95.8164653,9.38666667 95.8164653,11.1466667 C95.8164653,13.92 93.7250755,15.9466667 89.4886707,15.9466667 C85.0377644,15.9466667 83.0536254,13.76 83.0536254,12.1066667 C83.0536254,11.2533333 83.6971299,10.6666667 84.5015106,10.6666667 C86.3783988,10.6666667 85.8957704,13.44 89.4350453,13.44 C91.2583082,13.44 92.223565,12.4266667 92.223565,11.4133333 C92.223565,10.7733333 91.9018127,10.1333333 90.7220544,9.81333333 L86.7537764,8.8 C83.5898792,8 83,6.24 83,4.64 C83,1.22666667 86.1638973,0 89.1132931,0 C91.8481873,0 95.06571,1.54666667 95.06571,3.57333333 C95.06571,4.42666667 94.3149547,4.96 93.4569486,4.96 C91.8481873,4.96 92.1163142,2.66666667 88.8451662,2.66666667 C87.2364048,2.66666667 86.3247734,3.41333333 86.3247734,4.48 C86.3247734,5.54666667 87.6117825,5.86666667 88.7379154,6.13333333 L91.7945619,6.77333333 Z M100.857251,7.36 L103.592145,7.36 C104.986405,7.36 106.058912,6.50666667 106.058912,5.17333333 C106.058912,3.62666667 104.986405,2.98666667 103.270393,2.98666667 L100.910876,2.98666667 L100.910876,7.36 L100.857251,7.36 Z M97.3716012,2.4 C97.3716012,0.853333333 98.1759819,0.373333333 99.4093656,0.373333333 L104.23565,0.373333333 C107.185045,0.373333333 109.544562,1.81333333 109.544562,5.22666667 C109.544562,8 107.614048,10.08 104.23565,10.08 L100.910876,10.08 L100.910876,14.24 C100.910876,15.2533333 100.213746,16 99.1412387,16 C98.0687311,16 97.3716012,15.3066667 97.3716012,14.24 L97.3716012,2.4 Z M117.212991,13.1733333 C120.376888,13.1733333 120.376888,10.72 120.376888,7.78666667 C120.376888,4.85333333 120.055136,2.77333333 117.212991,2.77333333 C114.370846,2.77333333 114.049094,4.85333333 114.049094,7.78666667 C114.049094,10.72 113.941843,13.1733333 117.212991,13.1733333 M117.212991,0 C122.253776,0 123.916163,3.30666667 123.916163,7.78666667 C123.916163,12.1066667 122.468278,16 117.212991,16 C111.689577,16 110.509819,12.4266667 110.509819,7.78666667 C110.509819,3.30666667 112.172205,0 117.212991,0 M143.060423,3.30666667 L140.593656,3.30666667 C139.574773,3.30666667 138.770393,2.77333333 138.770393,1.86666667 C138.770393,0.906666667 139.574773,0.426666667 140.593656,0.426666667 L149.066465,0.426666667 C150.085347,0.426666667 150.889728,0.96 150.889728,1.86666667 C150.889728,2.82666667 150.085347,3.30666667 149.066465,3.30666667 L146.599698,3.30666667 L146.599698,14.1866667 C146.599698,15.2 145.902568,15.9466667 144.83006,15.9466667 C143.757553,15.9466667 143.060423,15.2533333 143.060423,14.1866667 L143.060423,3.30666667 Z M152.927492,1.70666667 L152.927492,1.17333333 L153.356495,1.17333333 C153.463746,1.17333333 153.517372,1.17333333 153.624622,1.22666667 C153.731873,1.28 153.731873,1.33333333 153.731873,1.44 C153.731873,1.49333333 153.678248,1.6 153.624622,1.65333333 C153.517372,1.70666667 153.410121,1.76 153.30287,1.76 L152.927492,1.76 L152.927492,1.70666667 Z M154,2.56 L153.624622,1.86666667 C153.839124,1.81333333 153.946375,1.65333333 153.946375,1.49333333 C153.946375,1.38666667 153.892749,1.22666667 153.731873,1.17333333 C153.624622,1.12 153.463746,1.06666667 153.30287,1.06666667 L152.60574,1.06666667 L152.60574,2.61333333 L152.820242,2.61333333 L152.820242,1.86666667 L153.30287,1.86666667 L153.624622,2.50666667 L154,2.50666667 L154,2.56 Z" id="Shape"></path>
                <path d="M152.5,0.24 C151.78,0.24 151.24,0.78 151.24,1.5 C151.24,2.22 151.78,2.76 152.5,2.76 C153.22,2.76 153.76,2.22 153.76,1.5 C153.76,0.78 153.16,0.24 152.5,0.24 M152.5,3 C151.66,3 151,2.34 151,1.5 C151,0.66 151.66,0 152.5,0 C153.34,0 154,0.66 154,1.5 C154,2.34 153.34,3 152.5,3" id="Shape"></path>
                <path d="M0,3.5 C0,1.5859375 1.5859375,0 3.5,0 C5.4140625,0 7,1.5859375 7,3.5 C7,5.4140625 5.4140625,7 3.5,7 C1.5859375,7 0,5.4140625 0,3.5" id="Path"></path>
                <path d="M2.83916084,16 C2.36713287,16 2,15.5652174 2,15.076087 L2,9.36956522 C2,8.82608696 2.36713287,8.44565217 2.83916084,8.44565217 C8.13636364,8.44565217 8.55594406,1 16.1608392,1 C16.5804196,1 17,1.43478261 17,1.92391304 L17,7.57608696 C17,8.11956522 16.6328671,8.5 16.1608392,8.5 C10.9685315,8.55434783 10.6538462,16 2.83916084,16" id="Path"></path>
            </g>
        </g>
    </g>
</svg>