<?xml version="1.0" encoding="UTF-8"?>
<svg width="85px" height="75px" viewBox="0 0 85 75" version="1.1" xmlns="http://www.w3.org/2000/svg" xmlns:xlink="http://www.w3.org/1999/xlink">
    <title>Group 5</title>
    <g id="Page-1" stroke="none" stroke-width="1" fill="none" fill-rule="evenodd">
        <g id="iPhone-11-Pro" transform="translate(-994.000000, -2160.000000)" fill="#333333">
            <g id="Group-5" transform="translate(994.940520, 2160.832714)">
                <path d="M37.555752,33.0000299 C37.555752,33.0000299 37.6175281,44.582291 37.5726502,50.3650449 C37.5769831,56.1902856 36.6451421,60.0754935 35,62.9911624 C35.0230184,62.9912044 35.550103,62.9922119 35.7785652,62.9911624 C39.7590454,62.993786 43.7487222,63.0172936 47.7278484,62.9747911 C48.8855247,62.9623552 50.0574454,62.8539529 51.1806157,62.5976473 C53.4736378,62.0752081 55.5877443,61.1852643 57.4599187,59.7116776 C59.9640443,57.7405603 61.5509308,55.2281295 62.3851898,52.2835851 C62.9251214,50.3786772 63.1034033,48.407308 62.9437257,46.3968628 C62.7860737,44.4093585 62.3149429,42.550222 61.4542966,40.7397063 C60.1200282,37.9347851 57.9504445,35.9324416 55.1749991,34.5742256 C53.0017325,33.5109923 50.6544465,32.9954742 48.1848323,33.0000299 C44.4904578,33.044819 38.0842447,33.0032086 37.5557249,33.0000299 L37.555752,33.0000299 Z M45.2229266,37.9520957 C45.9418063,37.9431754 46.7407414,37.9802732 47.3216675,37.9848908 C47.7120712,37.9869897 48.1137567,38.0143802 48.5064406,38.0832761 C48.8991245,38.1521878 49.2842151,38.2617497 49.6573631,38.3784321 C49.9068614,38.4564373 50.1400356,38.5392803 50.368227,38.640793 C51.5091838,39.1483459 52.3974522,39.9341534 53.0762798,40.9200532 C53.0789879,40.9237262 53.0735718,40.9328564 53.0762798,40.9364245 C53.3445828,41.3275783 53.5953377,41.7528758 53.804069,42.1990362 C54.3412167,43.3474895 54.6650186,44.501699 54.8195942,45.6753179 C54.8201358,45.6806176 54.8190526,45.6864945 54.8195942,45.6916892 C54.9209025,46.4687707 54.9384507,47.2510626 54.9042209,48.0365396 C54.8697745,48.827458 54.7794013,49.6331683 54.6334156,50.4305827 C54.5604227,50.8292453 54.4755307,51.2277452 54.3795357,51.6276042 C54.0709964,52.9143689 53.5619095,54.1101941 52.7885492,55.2022712 C52.2984295,55.8946521 51.7050843,56.4583869 51.0113895,56.8912194 C50.7339116,57.0642989 50.4411007,57.2162321 50.1312723,57.350351 C49.9763609,57.4174262 49.8203391,57.4731201 49.6573631,57.5307241 C48.5150793,57.9348438 47.3454713,57.9539384 46.1707451,57.940663 C45.6287174,57.9390888 45.0759822,57.9284894 44.681316,57.940663 C44.9156817,56.3444226 44.9906894,54.6964867 45.0875239,53.0705891 C45.1532104,51.9676607 45.1853117,50.8628642 45.2060012,49.7582829 C45.2672141,46.4902371 45.2228995,39.9525449 45.2228995,39.9525449 L45.2228995,37.9520432 L45.2229266,37.9520957 Z" id="path4383"></path>
                <path d="M25.9567662,37.9456215 C21.6720682,37.907244 17.5930605,37.7249131 13.2418692,38.7753951 C13.2418692,36.8240064 13.2418692,33 13.2418692,33 L33.9658996,33 C33.9658996,33 34.028886,44.8876768 33.9836522,50.8278957 C33.9897701,58.8932639 32.2695873,63.3476156 29.4028017,66.6066533 C26.4502572,69.6737764 22.9500024,71.367583 19.1752151,72.4520765 C15.3848601,73.4021786 11.3137073,73.7161735 7.71933612,73.9307749 C7.01752737,73.9736801 6.00109247,74 6.00109247,74 L6,69.63348 C7.20061456,69.5981749 8.55366158,69.4925343 9.63028616,69.3843388 C10.9902813,69.2442771 12.3680127,69.1702117 13.6979813,68.8847035 C15.7546888,68.4423111 17.7349725,67.7521142 19.5084897,66.5710462 C22.2612322,64.7381643 23.9351216,62.1517949 24.8392832,59.0651165 C25.6212957,56.3952491 25.9829582,53.6587223 25.9570284,50.8663055 C25.9187919,46.8813669 25.9592134,42.8964337 25.9570448,38.9114951 C25.9570448,38.6764921 25.9581373,38.3359187 25.9570448,37.9457024 L25.9567662,37.9456215 Z" id="path4385"></path>
                <path d="M63,63 C63,63 63.3156744,62.0436079 63.4298725,61.555492 C63.8106088,59.928113 64.2093353,58.2881356 64.2775482,56.6222457 C64.4217889,53.0906128 64.5098917,49.5563435 64.5489721,46.0220794 C64.5937345,41.9901534 64.5588687,37.9582273 64.5617126,33.926296 C64.5617126,33.6271715 64.5617126,33 64.5617126,33 L83.1814392,33 C83.1814392,33 83.1814392,36.7275444 83.1814392,38.6386499 C80.5850044,37.885863 75.439963,37.9163222 72.8624115,37.9073813 C72.8595676,38.2359177 72.86273,44.9442241 72.8612739,45.3480718 C75.7795827,45.3112345 78.8343684,45.4425701 81.7267297,44.9675947 C81.7267297,45.3033881 81.7265534,50.3490989 81.7265534,50.6947542 C78.8126299,50.3154243 75.9346528,50.2635468 72.8610976,50.3142718 C72.8268575,52.9108361 72.8537036,55.7382021 72.5616048,58.008077 C76.3757813,58.0199176 80.2825312,58.1882064 83.9936803,57.4236368 C84.0078996,58.0475246 83.9936803,63 83.9936803,63 L63.0005915,63 L63,63 Z" id="path4387"></path>
                <path d="M4.7314041,0 C5.58882276,0.329635596 6.47265898,0.599217507 7.29659028,1.00158734 C8.95410614,1.81099541 10.4003227,2.95604285 11.5759847,4.40470778 C12.3812282,5.39761529 13.010609,6.52998752 13.4467284,7.76845654 C14.133441,9.71757596 14.1289341,11.7094001 13.7172933,13.6872137 C13.3520315,15.4421561 12.7516415,17.1370449 11.9605684,18.7431805 C11.1495236,20.3900231 10.28437,22.0088393 9.4765481,23.6576849 C8.36401911,25.9264301 7.22572744,28.1938453 6.66012424,30.692133 C6.17826521,32.8167504 6.27167296,34.9366941 6.99252776,37.0032501 C7.1786987,37.5370779 7.37968987,38.0735656 7.64896555,38.5646833 C7.90277641,39.0277745 8.25515168,39.432815 8.53086803,40 C8.25773001,39.9092491 7.98845433,39.7978162 7.71015965,39.7317534 C5.10825805,39.1145193 3.13508749,37.5357425 1.66051965,35.3097021 C0.727726085,33.9004088 0.184023218,32.2729182 0.0538948772,30.5593451 C-0.0949160463,28.5968828 0.0585358721,26.6644446 0.587934161,24.7386779 C1.30428204,22.1336204 2.46769696,19.7547777 3.66139179,17.3745943 C4.85895411,14.9864041 6.14862988,12.6322494 6.96547076,10.0685612 C7.61675189,8.0253579 7.88796132,5.8987428 7.17483636,3.8014842 C6.76963625,2.60905829 6.06553028,1.57144301 5.14497863,0.717327181 C4.96009171,0.545835268 4.74364602,0.411044312 4.54136568,0.258904396 C4.60514326,0.17282727 4.6682711,0.0860824666 4.7314041,0 L4.7314041,0 Z" id="path4389"></path>
            </g>
        </g>
    </g>
</svg>