<?xml version="1.0" encoding="UTF-8"?>
<svg width="165px" height="32px" viewBox="0 0 165 32" version="1.1" xmlns="http://www.w3.org/2000/svg" xmlns:xlink="http://www.w3.org/1999/xlink">
    <title>Group 2</title>
    <g id="Page-1" stroke="none" stroke-width="1" fill="none" fill-rule="evenodd">
        <g id="iPhone-11-Pro" transform="translate(-744.000000, -2425.000000)" fill="#333333" fill-rule="nonzero">
            <g id="Group-2" transform="translate(744.000000, 2425.000000)">
                <path d="M156.613095,16.279705 L143.198133,31.1688587 C143.089407,31.2950063 143,31.4759736 143,31.6206851 C143,31.8367868 143.161293,32 143.431496,32 L151.782304,32 C152.159314,32 152.284819,31.9462393 152.644306,31.5483605 L164.084502,18.9185258 C164.658778,18.2851091 165,17.6533744 165,16.967007 C165,16.3882854 164.766637,15.791872 164.497485,15.1958325 L158.032036,0.524151034 C157.942629,0.343183747 157.726911,0 157.223468,0 L150.075884,0 C149.824132,0 149.698751,0.198534508 149.698751,0.397442786 C149.698751,0.487832987 149.734662,0.577911712 149.789025,0.722623247 L156.613095,16.279705 Z" id="Path"></path>
                <path d="M94.1622028,9.82030224 L86.4087016,9.82030224 C86.0844555,9.82030224 85.670837,9.92775257 85.3651972,10.2676213 L78.8167653,17.5139798 L84.3040788,1.66221968 C84.357603,1.53688153 84.3936373,1.4294312 84.3936373,1.33986871 C84.3936373,1.10738864 84.2320724,1 84.015929,1 L77.1798434,1 C76.6940944,1 76.460399,1.19695114 76.298276,1.69756355 L67.2856852,28.1944927 C67.2496509,28.2835617 67.2136787,28.4093316 67.2136787,28.4984624 C67.2136787,28.7309424 67.3576916,28.9108693 67.6453453,28.9108693 L74.5714235,28.9108693 C74.9671799,28.9108693 75.1652132,28.7134864 75.308978,28.3203243 L78.0253765,19.9111336 L81.6412665,28.3919373 C81.7312591,28.58858 81.9474025,28.9283253 82.4331515,28.9283253 L89.5568288,28.9283253 C89.8081381,28.9283253 89.934599,28.7309424 89.934599,28.5343614 C89.934599,28.445169 89.8986268,28.3552364 89.8450406,28.2119487 L85.7253535,19.2130149 L94.4143804,10.7864299 C94.6295935,10.5898489 94.6655657,10.4287351 94.6655657,10.2500419 C94.6655657,9.98141605 94.4142564,9.82030224 94.1622028,9.82030224 L94.1622028,9.82030224 Z M94.0541621,28.2661673 C94.0181279,28.3552364 93.9821557,28.4635502 93.9821557,28.5702604 C93.9821557,28.7676433 94.1437205,28.9458431 94.3598019,28.9458431 L101.160287,28.9458431 C101.682071,28.9458431 101.933256,28.6244173 102.005262,28.2836851 L104.955852,19.5356126 L112.870981,19.5356126 C113.392826,19.5356126 113.518356,19.356426 113.662431,18.9625237 L115.299725,14.0965414 C115.33576,13.9891528 115.353436,13.8995903 115.353436,13.828409 C115.353436,13.5776094 115.155712,13.4522095 114.850073,13.4522095 L106.969924,13.4522095 L107.869416,10.2855091 C108.356095,8.58585716 109.237104,7.69128079 111.395375,7.69128079 L116.774586,7.69128079 C117.152357,7.69128079 117.42283,7.42314843 117.494031,7.11917875 L119.347406,1.68016919 C119.364958,1.60849451 119.38344,1.53688153 119.38344,1.46526854 C119.38344,1.23278847 119.239427,1.03583734 118.897753,1.03583734 L110.838488,1.03583734 C105.441663,1.03583734 101.987772,3.61205446 100.386637,8.532132 L94.0541621,28.2661673 L94.0541621,28.2661673 Z M121.146327,6.31379477 C121.110355,6.43907124 121.074321,6.51074591 121.074321,6.60030841 C121.074321,6.81477728 121.254368,6.99390228 121.488125,6.99390228 L128.323715,6.99390228 C128.84556,6.99390228 128.972021,6.72527647 129.116034,6.4212451 L130.662033,1.80513724 C130.698935,1.68029255 130.734039,1.57278054 130.734039,1.4653919 C130.734039,1.17924836 130.55486,1.0359607 130.194642,1.0359607 L123.520617,1.0359607 C122.998834,1.0359607 122.854821,1.28632859 122.729167,1.62656739 L121.146327,6.31379477 Z M120.64222,9.83819007 C120.102885,9.83819007 119.850769,10.0530907 119.68908,10.5541349 L113.680914,28.2661057 C113.626459,28.3918756 113.608907,28.4634886 113.608907,28.5343614 C113.608907,28.7309424 113.734562,28.9457814 114.021781,28.9457814 L120.858301,28.9457814 C121.380022,28.9457814 121.505677,28.6775873 121.6322,28.3552364 L127.694821,10.5720227 C127.729925,10.4645724 127.766827,10.3750716 127.766827,10.2675596 C127.766827,10.0350795 127.640366,9.8560779 127.317175,9.8560779 L120.642282,9.83862184 L120.642282,9.83819007 L120.64222,9.83819007 Z M136.130802,23.1311891 C135.483426,23.1311891 135.1242,22.7554831 135.1242,22.1649998 C135.1242,22.0401551 135.159304,21.8434507 135.231372,21.6286117 C135.231372,21.6286117 137.408064,14.9015553 138.056246,13.3452527 L142.571255,13.3452527 C143.093038,13.3452527 143.201017,13.1661894 143.345154,12.7725955 L144.946414,8.04916068 C144.982448,7.94220382 145,7.85251795 145,7.78090497 C145,7.53059876 144.802339,7.40526061 144.496637,7.40526061 L140.016918,7.40526061 L141.9423,1.78718773 C141.977403,1.68023087 142.014306,1.59066837 142.014306,1.48321805 C142.014306,1.25042957 141.887845,1.07167467 141.564653,1.07167467 L135.285889,1.07167467 C134.746554,1.07167467 134.494438,1.28626691 134.331943,1.78761951 L127.729987,21.3420981 C127.406795,22.3082874 127.24523,23.2386395 127.24523,24.0799225 C127.24523,26.9960083 129.116158,29 132.605091,29 L138.326037,29 C138.847883,29 138.955861,28.8209367 139.099998,28.409455 L140.665286,23.7934705 C140.700328,23.7044015 140.71881,23.5968895 140.71881,23.5251531 C140.71881,23.2744768 140.521149,23.1495704 140.215447,23.1495704 L136.130802,23.1311891 L136.130802,23.1311891 Z M62.7702417,6.27789576 C62.7342074,6.40323391 62.6982352,6.4748469 62.6982352,6.56440939 C62.6982352,6.77887827 62.8782203,6.95794158 63.1119777,6.95794158 L69.9480634,6.95794158 C70.4698466,6.95794158 70.5958734,6.68937745 70.7400103,6.38540776 L72.2868156,1.76929991 C72.3227878,1.66228136 72.3588221,1.53694321 72.3588221,1.42949288 C72.3588221,1.14328766 72.1787749,1.00006168 71.8189907,1.00006168 L65.1450282,1.00006168 C64.623369,1.00006168 64.4796042,1.25042957 64.3535774,1.57271886 L62.7702417,6.27789576 Z M62.2845547,9.80284619 C61.7452196,9.80284619 61.51109,10.0173151 61.3315391,10.5183593 L55.3408005,28.23033 C55.2867802,28.3552364 55.2687941,28.426911 55.2687941,28.498524 C55.2687941,28.6960303 55.3944488,28.910931 55.6825986,28.910931 L62.5186222,28.910931 C63.0399713,28.910931 63.1659981,28.6419351 63.2920869,28.320386 L69.3187356,10.5184209 C69.3547078,10.4109706 69.3907421,10.3214698 69.3907421,10.2143279 C69.3907421,9.98153941 69.2647153,9.80284619 68.9410274,9.80284619 L62.2845547,9.80284619 L62.2845547,9.80284619 Z M50.4834349,9.80284619 C50.1416368,9.80284619 50.0335961,9.98147773 49.9620858,10.1784289 L45.7163719,22.7022514 L42.2805911,22.7022514 L46.4002782,10.5362471 C46.4542986,10.4109089 46.4902708,10.2855708 46.4902708,10.2142662 C46.4902708,9.99942724 46.3282718,9.80284619 46.0940182,9.80284619 L41.1648942,9.80284619 C40.8232822,9.80284619 40.7152415,9.98147773 40.6436692,10.1784289 L36.4160034,22.7022514 L34.2572983,22.7022514 C33.6635707,22.7022514 33.3758549,22.3624444 33.3758549,21.879288 C33.3758549,21.7176808 33.4118272,21.539481 33.4833995,21.3420981 L37.1173996,10.5899722 C37.1353857,10.5541966 37.2253783,10.3034586 37.2253783,10.1958849 C37.2253783,9.96352822 37.027345,9.80284619 36.7935876,9.80284619 L30.5334296,9.80284619 C30.2096176,9.80284619 30.0476186,9.96352822 29.9576261,10.2501035 L26.5578174,20.3759087 C26.1975991,21.4853241 26,22.5231881 26,23.3102525 C26,26.0296956 28.1587051,28.9108693 31.7384989,28.9108693 L50.5914756,28.9283253 C51.0591764,28.9283253 51.2751958,28.5885183 51.3829264,28.2661673 L57.391527,10.5362471 C57.4275612,10.4288584 57.4635955,10.3392959 57.4635955,10.2317223 C57.4635955,9.99936555 57.3375687,9.82030224 57.0138807,9.82030224 L50.4834349,9.80284619 Z" id="Shape"></path>
                <path d="M9.91439426,0 C9.43117158,0 9.19838313,0.198908665 9.03704154,0.704932809 L0.0716936613,27.4827861 C0.0358468307,27.5736748 0,27.6997604 0,27.7906491 C0,28.0254398 0.142832036,28.2053484 0.429483284,28.2053484 L7.3191084,28.2053484 C7.76654595,28.2053484 7.96354927,27.9344888 8.10644301,27.6636291 L11.578588,16.8769611 L18.0925309,31.4760348 C18.199948,31.7838979 18.5398451,32 18.9155273,32 L25.9848184,32 C26.2172367,32 26.3427314,31.8015274 26.3427314,31.6568156 C26.3427314,31.6021204 26.3427314,31.53073 26.2709761,31.3674542 L18.7190175,15.1781702 L32.8207658,0.885339791 C32.9461372,0.741126337 33,0.59641452 33,0.433699383 C33,0.198908665 32.8566127,0.0361935279 32.5525008,0.0361935279 L24.8572166,0.0361935279 C24.3381471,0.0361935279 24.1952533,0.0904526722 23.8369701,0.487958527 L13.0637327,12.0161267 L16.9652376,0.813513393 C17.018977,0.686929488 17.0727164,0.524152055 17.0727164,0.415633766 C17.0727164,0.180843049 16.875713,0.0181279116 16.6428012,0.0181279116 L9.91439426,0 Z" id="Path"></path>
            </g>
        </g>
    </g>
</svg>