<?xml version="1.0" encoding="UTF-8"?>
<svg width="156px" height="26px" viewBox="0 0 156 26" version="1.1" xmlns="http://www.w3.org/2000/svg" xmlns:xlink="http://www.w3.org/1999/xlink">
    <title>Group 11</title>
    <g id="Page-1" stroke="none" stroke-width="1" fill="none" fill-rule="evenodd">
        <g id="iPhone-11-Pro" transform="translate(-970.000000, -2433.000000)" fill="#333333" fill-rule="nonzero">
            <g id="Group-11" transform="translate(970.000000, 2433.000000)">
                <path d="M0,0 L0,26 L156,26 L156,0 L0,0 Z M13.3380714,19.6300742 C11.3101923,19.6300742 8.71010073,19.0059379 6.6822216,17.1340786 C6.70804395,17.1340786 8.1106924,15.236122 8.1106924,15.236122 C8.1106924,15.236122 10.1646686,17.3159352 13.1806649,17.3159352 C16.0148059,17.3159352 16.6905825,16.2758912 16.6905825,15.6781269 C16.6905825,14.4301291 14.7926393,14.2999176 12.7647602,14.040044 C10.1388462,13.7018786 6.75858984,13.2598736 6.75858984,10.2180335 C6.75858984,7.98191154 9.54081144,6.36992583 12.6348243,6.36992583 C15.1308023,6.36992583 17.0287455,7.01988462 18.6146228,8.3719967 C18.6407199,8.39809395 17.2106008,10.3224225 17.2106008,10.3224225 C15.9622216,9.22211004 14.3521417,8.62044076 12.6881172,8.63241975 C10.4261886,8.63241975 9.33395788,9.59389726 9.33395788,10.1924857 C9.33395788,11.4146609 11.2060787,11.4665807 13.5460238,11.7786489 C16.6661337,12.1945566 19.3181447,12.7401264 19.3181447,15.6006593 C19.3181447,17.835133 16.8477143,19.6300742 13.3380714,19.6300742 L13.3380714,19.6300742 Z M45.4739945,19.3441033 L42.9260971,19.3441033 L42.9260971,17.8626038 C41.9069157,19.0294021 40.4185695,19.6781704 38.8700641,19.6306236 C35.2041135,19.6306236 32.447989,16.6665258 32.447989,12.9744522 C32.447989,9.30847579 35.1780165,6.344378 38.8700641,6.344378 C40.4187354,6.29596876 41.9074346,6.94489089 42.9260971,8.11239778 L42.9260971,6.63062359 L45.4739945,6.63062359 L45.4739945,19.3441033 Z M71.3699725,19.3441033 L68.795978,19.3441033 L68.795978,12.9728039 C68.795978,10.2949517 67.2101007,8.60494897 65.1561245,8.60494897 C63.0499542,8.60494897 61.2042051,10.2427572 61.1781081,13.3109693 L61.1781081,19.3430045 L58.6030147,19.3430045 L58.6030147,6.57787968 L61.0989927,6.57787968 L61.0989927,8.76208186 C61.8269634,7.22783847 63.7510037,6.34465271 65.5451081,6.34465271 C68.4295203,6.34465271 71.3688737,8.11267248 71.3688737,12.5588192 L71.3688737,19.3441033 L71.3699725,19.3441033 Z M90.9740861,19.6039794 C87.3125661,19.6039794 84.344261,16.6358148 84.3440587,12.974269 C84.3438565,9.31272317 87.3118337,6.34423317 90.9733536,6.34382862 C94.6348736,6.34342408 97.6035067,9.31125817 97.6041171,12.9728039 C97.6059379,14.7318686 96.9080401,16.4194269 95.6643048,17.6633772 C94.4205694,18.9073275 92.7331386,19.6055098 90.9740861,19.6039794 L90.9740861,19.6039794 Z M125.242002,11.7000824 L125.242002,19.3699258 L122.694104,19.3699258 L122.694104,11.7000824 C122.694104,8.73598462 121.263985,8.50193352 120.614031,8.50193352 C120.094013,8.50193352 118.300183,8.68406483 118.300183,11.803922 L118.300183,19.3699258 L115.752011,19.3699258 L115.752011,11.7000824 C115.752011,8.73598462 114.32354,8.50193352 113.671938,8.50193352 C113.152194,8.50193352 111.436106,8.68406483 111.436106,11.803922 L111.436106,19.3699258 L108.887934,19.3699258 L108.887934,6.60397692 L111.35809,6.60397692 L111.35809,8.05992858 C112.034141,6.73391374 113.463985,6.34382858 114.374086,6.34382858 C115.789524,6.29545196 117.093946,7.10697744 117.676051,8.39809395 C118.389383,7.12990876 119.730939,6.34473009 121.185969,6.34382858 C123.00617,6.31800604 125.320018,7.40996978 125.242002,11.7000824 L125.242002,11.7000824 Z M149.474086,19.3441033 L146.926189,19.3441033 L146.926189,17.8626038 C145.906937,19.0293056 144.418639,19.678053 142.870156,19.6306236 C139.20393,19.6306236 136.448081,16.6665258 136.448081,12.9744522 C136.448081,9.30847579 139.178108,6.344378 142.870156,6.344378 C144.418827,6.29596876 145.907526,6.94489089 146.926189,8.11239778 L146.926189,6.63062359 L149.474086,6.63062359 L149.474086,19.3441033 Z" id="Shape"></path>
                <path d="M143.090712,9 C140.302729,9 139,11.3808164 139,13.5001382 C139,15.6714273 140.328883,18 143.090712,18 C145.045356,18 147,16.5872109 147,13.5001382 C146.947142,10.4127891 145.045356,9 143.090712,9 Z" id="Path"></path>
                <path d="M39.0908465,9 C36.3026841,9 35,11.3808164 35,13.5001382 C35,15.6714273 36.3288369,18 39.0908465,18 C41.0454233,18 43,16.5872109 43,13.5001382 C43,10.4130655 41.0448727,9 39.0908465,9 Z" id="Path"></path>
                <path d="M91.0001345,9 C88.7836401,9 87,10.7946226 87,13.5 C87,16.1518868 88.8089437,18 91.0001345,18 C93.216629,18 95,16.1784906 95,13.5 C95.0005383,10.7957547 93.216629,9 91.0001345,9 Z" id="Path"></path>
            </g>
        </g>
    </g>
</svg>