<?xml version="1.0" encoding="UTF-8"?>
<svg width="130px" height="43px" viewBox="0 0 130 43" version="1.1" xmlns="http://www.w3.org/2000/svg" xmlns:xlink="http://www.w3.org/1999/xlink">
    <title>Group 6</title>
    <g id="Page-1" stroke="none" stroke-width="1" fill="none" fill-rule="evenodd">
        <g id="iPhone-11-Pro" transform="translate(-1192.000000, -2176.000000)" fill="#333333" fill-rule="nonzero">
            <g id="Group-6" transform="translate(1192.000000, 2176.000000)">
                <path d="M0,29.6618182 L1.42105263,29.6618182 C2.05263158,33.4036364 4.57894737,34.5490909 6.94736842,34.5490909 C9.15789474,34.5490909 10.8947368,33.4036364 10.8947368,31.7236364 C10.8947368,27.8290909 0.236842105,27.9054545 0.236842105,21.1854545 C0.236842105,17.6727273 2.84210526,15 8.21052632,15 C10.1052632,15 12.0789474,15.3054545 14.1315789,15.84 L14.2894737,21.1090909 L12.9473684,21.1090909 C12.5526316,18.5127273 10.6578947,16.2981818 7.73684211,16.2981818 C5.84210526,16.3745455 4.34210526,17.3672727 4.34210526,19.2 C4.34210526,23.0181818 15,23.2472727 15,29.6618182 C15,33.3272727 11.9210526,36 6.15789474,36 C4.65789474,36 2.13157895,35.6181818 0.0789473684,34.6254545 L0.0789473684,29.6618182 L0,29.6618182 Z" id="XMLID_9_"></path>
                <path d="M16.2292994,33.6092715 L16.611465,33.6092715 C17.9872611,33.6092715 18.8280255,32.9139073 18.8280255,31.4459161 L18.8280255,5.09933775 C18.8280255,3.78587196 18.522293,3.24503311 17.2993631,3.24503311 C16.8407643,3.24503311 16.3821656,3.32229581 16,3.3995585 L16,2.00883002 L23.8726115,0 L23.8726115,17.9249448 C27.7707006,14.9116998 29.910828,14.0618102 31.8216561,14.0618102 C34.7261146,14.0618102 37.2484076,15.7615894 37.2484076,20.0883002 L37.2484076,31.5231788 C37.2484076,33.1456954 38.3184713,33.6092715 40,33.6092715 L40,35 L29.1464968,35 L29.1464968,33.6092715 C31.5159236,33.6092715 32.2038217,33.2229581 32.2038217,30.6732892 L32.2038217,20.7064018 C32.2038217,17.5386313 30.2929936,17.0750552 28.9171975,17.0750552 C28.1528662,17.0750552 26.3949045,17.4613687 24.0254777,19.4701987 L24.0254777,31.4459161 C24.0254777,32.9139073 24.866242,33.6092715 26.2420382,33.6092715 L26.6242038,33.6092715 L26.6242038,35 L16.2292994,35 L16.2292994,33.6092715 Z" id="XMLID_8_"></path>
                <path d="M82.9227642,33.9306569 C80.6056911,35.4635036 77.9796748,36 74.8130081,36 C67.398374,36 64,31.1715328 64,25.959854 C64,18.2956204 69.4065041,15 74.8130081,15 C78.3658537,15 83,17.2226277 83,24.810219 L69.5609756,24.810219 C69.6382114,31.4781022 73.7317073,34.3138686 76.6666667,34.3138686 C78.7520325,34.3138686 80.7601626,33.3941606 82.6138211,30.4051095 L82.9227642,33.9306569 Z M77.4390244,23.5072993 C77.4390244,19.2153285 76.898374,16.379562 73.7317073,16.379562 C70.1788618,16.379562 69.6382114,19.8284672 69.5609756,23.5072993 L77.4390244,23.5072993 Z" id="XMLID_19_"></path>
                <path d="M84,1.99561404 L91.7394137,0 L91.7394137,16.1184211 C95.1791531,14.2763158 96.9771987,13.9692982 99.1661238,13.9692982 C104.482085,13.9692982 108,17.2697368 108,23.3333333 C108,27.4780702 104.95114,35 95.4136808,35 C92.5993485,35 88.534202,34.3859649 86.5016287,33.3114035 C86.5016287,31.6995614 86.5016287,4.375 86.5016287,4.375 C86.5016287,3.53070175 86.0325733,3.3004386 85.4071661,3.3004386 C84.8599349,3.3004386 84.3127036,3.37719298 84.0781759,3.45394737 L84.0781759,1.99561404 L84,1.99561404 Z M91.7394137,32.3135965 C92.8338762,33.1578947 94.3973941,33.6951754 95.9609121,33.6951754 C98.3843648,33.6951754 102.996743,32.1600877 102.996743,25.9429825 C102.996743,21.1074561 100.260586,16.5789474 95.5700326,16.5789474 C94.2410423,16.5789474 92.990228,16.8859649 91.7394137,17.4232456 L91.7394137,32.3135965 Z" id="XMLID_16_"></path>
                <path d="M108.910035,37.1550388 L110.262976,37.1550388 C110.422145,39.1782946 111.456747,40.1524548 113.287197,40.1524548 C115.197232,40.1524548 117.107266,38.8036176 118.380623,34.0826873 L110.262976,17.2222222 C109.546713,15.7235142 108.114187,15.4237726 107,15.3488372 L107,14 L118.937716,14 L118.937716,15.3488372 L118.062284,15.3488372 C116.868512,15.3488372 116.311419,15.873385 116.311419,16.5478036 C116.311419,16.8475452 116.391003,17.2222222 116.629758,17.6718346 L121.086505,27.4134367 L124.508651,18.121447 C124.82699,17.4470284 124.906574,16.8475452 124.906574,16.6976744 C124.906574,15.873385 124.508651,15.3488372 122.439446,15.3488372 L121.802768,15.3488372 L121.802768,14 L130,14 L130,15.3488372 C128.567474,15.498708 127.532872,16.0232558 126.657439,18.1963824 L119.813149,35.3565891 C117.186851,42.0258398 114.719723,43 111.615917,43 C110.6609,43 109.944637,42.8501292 109.148789,42.5503876 L108.910035,37.1550388 Z" id="XMLID_3_"></path>
                <path d="M50.5,15 C45.25,15 40,18.2956204 40,25.959854 C40,30.6350365 43.3,36 50.5,36 C57.175,36 61,31.1715328 61,25.959854 C61,18.2956204 55.75,15 50.5,15 M50.5,34.4671533 C46.525,34.4671533 45.4,30.4817518 45.4,25.5 C45.4,20.5182482 46.6,16.5328467 50.5,16.5328467 C54.4,16.5328467 55.6,20.5182482 55.6,25.5 C55.675,30.4051095 54.475,34.4671533 50.5,34.4671533" id="XMLID_12_"></path>
            </g>
        </g>
    </g>
</svg>