<?xml version="1.0" encoding="UTF-8"?>
<svg width="106px" height="48px" viewBox="0 0 106 48" version="1.1" xmlns="http://www.w3.org/2000/svg" xmlns:xlink="http://www.w3.org/1999/xlink">
    <title>Path_63932 2</title>
    <g id="Page-1" stroke="none" stroke-width="1" fill="none" fill-rule="evenodd">
        <g id="iPhone-11-Pro" transform="translate(-757.000000, -2493.000000)" fill="#333333" fill-rule="nonzero">
            <g id="Path_63932-2" transform="translate(757.000000, 2493.000000)">
                <path d="M0,0 L0,48 L106,48 L106,0 L0,0 Z M50.1195652,35.9212115 L30.6910326,35.9212115 C28.3649087,35.9276549 26.4288587,34.1453619 26.255163,31.8376119 L26.255163,11.921194 L30.8494565,11.921194 L30.8494565,31.3504478 L36.10625,31.3504478 L36.10625,11.921194 L40.7005435,11.921194 L40.7005435,31.3504478 L45.6116848,31.3504478 L45.6116848,11.921194 L50.2059783,11.921194 L50.1195652,35.9212115 Z M79.8168478,35.921194 L55.7940217,35.921194 L55.7940217,15.6752239 C56.0461702,13.655701 57.6872395,12.0888275 59.7258152,11.921194 L79.413587,11.921194 L79.413587,16.4919403 L60.3883152,16.4919403 L60.3883152,21.7074627 L79.744837,21.7074627 L79.744837,26.278209 L60.3883152,26.278209 L60.3883152,31.1641791 L79.744837,31.1641791 L79.8168478,35.921194 Z" id="Path_63932"></path>
            </g>
        </g>
    </g>
</svg>