<?xml version="1.0" encoding="UTF-8"?>
<svg width="145px" height="24px" viewBox="0 0 145 24" version="1.1" xmlns="http://www.w3.org/2000/svg" xmlns:xlink="http://www.w3.org/1999/xlink">
    <title>Group 13</title>
    <g id="Page-1" stroke="none" stroke-width="1" fill="none" fill-rule="evenodd">
        <g id="iPhone-11-Pro" transform="translate(-964.000000, -2505.000000)" fill="#333333" fill-rule="nonzero">
            <g id="Group-13" transform="translate(964.000000, 2505.000000)">
                <polygon id="Path" points="8.35266441 18.3047365 20.512857 5.0994864 20.5657074 5.04013696 20.5657074 4.96252616 20.5657074 0.203157695 20.5657074 0 20.3611993 0 0.227486596 0 0.0206805996 0 0.0206805996 0.203157695 0.0206805996 5.48982309 0.0206805996 5.69526346 0.227486596 5.69526346 11.9143232 5.69526346 0.0528504213 18.6357238 0 18.6950732 0 18.772684 0 23.7968423 0 24 0.204508152 24 20.7954918 24 21 24 21 23.7968423 21 18.5101769 21 18.3047365 20.7954918 18.3047365"></polygon>
                <polygon id="Path" points="24.1997664 0 24 0 24 0.203157695 24 23.7968423 24 24 24.1997664 24 42.8024533 24 43 24 43 23.7968423 43 18.5101769 43 18.3047365 42.8024533 18.3047365 30.3725467 18.3047365 30.3725467 14.2187559 41.4218458 14.2187559 41.6193925 14.2187559 41.6193925 14.0155982 41.6193925 9.25622979 41.6193925 9.05307209 41.4218458 9.05307209 30.3725467 9.05307209 30.3725467 5.33003614 42.8024533 5.33003614 43 5.33003614 43 5.12687845 43 0.203157695 43 0 42.8024533 0"></polygon>
                <polygon id="Path" points="53.3725467 18.3047365 53.3725467 14.2187559 64.4196262 14.2187559 64.6171729 14.2187559 64.6171729 14.0155982 64.6171729 9.25622979 64.6171729 9.05307209 64.4196262 9.05307209 53.3725467 9.05307209 53.3725467 5.33003614 65.8024533 5.33003614 66 5.33003614 66 5.12687845 66 0.203157695 66 0 65.8024533 0 47.1975467 0 47 0 47 0.203157695 47 23.7968423 47 24 47.1975467 24 65.8024533 24 66 24 66 23.7968423 66 18.5101769 66 18.3047365 65.8024533 18.3047365"></polygon>
                <polygon id="Path" points="86.989659 0 86.8341167 0 86.7963422 0.152938939 83.001111 15.2459578 79.2036578 0.152938939 79.1658833 0 79.012563 0 70.1977609 0 70 0 70 0.203157695 70 23.7968423 70 24 70.1977609 24 75.8283907 24 76.0261516 24 76.0261516 23.7968423 76.0261516 7.14704204 80.525767 23.8493437 80.5657636 24 80.7168618 24 85.2831382 24 85.4342364 24 85.474233 23.8493437 89.9738484 7.14704204 89.9738484 23.7968423 89.9738484 24 90.1738313 24 95.8022391 24 96 24 96 23.7968423 96 0.203157695 96 0 95.8022391 0"></polygon>
                <path d="M113.884081,0.132394902 L113.835121,0 L107.167211,0 L107.115919,0.132394902 L98.1049147,23.7237968 L98,24 L104.894059,24 L104.94302,23.8630398 L106.411825,19.7702111 L114.520563,19.7702111 L115.956729,23.8630398 L116.005689,24 L123,24 L122.895085,23.7237968 L113.884081,0.132394902 Z M112.900214,14.8031196 L108.004197,14.8031196 L110.482514,7.30454632 L112.900214,14.8031196 Z" id="Shape"></path>
                <polygon id="Path" points="144.794502 0 138.945904 0 138.740407 0 138.740407 0.203157695 138.740407 14.0840784 130.767565 0.102720183 130.709841 0 130.589775 0 124.205498 0 124 0 124 0.203157695 124 23.7968423 124 24 124.205498 24 130.054096 24 130.259593 24 130.259593 23.7968423 130.259593 9.75613468 138.230126 23.8949971 138.290159 24 138.410225 24 144.794502 24 145 24 145 23.7968423 145 0.203157695 145 0"></polygon>
            </g>
        </g>
    </g>
</svg>